<?xml version="1.0" encoding="utf-8"?><!-- Uploaded to: SVG Repo, www.svgrepo.com, Generator: SVG Repo Mixer Tools -->
<svg version="1.1" id="Uploaded to svgrepo.com" xmlns="http://www.w3.org/2000/svg" xmlns:xlink="http://www.w3.org/1999/xlink" 
	 width="800px" height="800px" viewBox="0 0 32 32" xml:space="preserve">
<style type="text/css">
	.stone_een{fill:#0B1719;}
</style>
<path class="stone_een" d="M11,11c0-2.206,1.794-4,4-4h5V5c0-1.657-1.343-3-3-3H6C4.343,2,3,3.343,3,5v16c0,1.657,1.343,3,3,3h5V11z
	 M6,6c0.195-0.195,0.512-0.195,0.707,0L7,6.293L8.293,5C8.488,4.805,8.805,4.805,9,5s0.195,0.512,0,0.707L7.354,7.353
	c-0.195,0.195-0.512,0.195-0.707,0L6,6.707C5.805,6.512,5.805,6.195,6,6z M9,18.707l-1.646,1.646c-0.195,0.195-0.512,0.195-0.707,0
	L6,19.707C5.805,19.512,5.805,19.195,6,19s0.512-0.195,0.707,0L7,19.293L8.293,18C8.488,17.805,8.805,17.805,9,18
	S9.195,18.512,9,18.707z M9,14.707l-1.646,1.646c-0.195,0.195-0.512,0.195-0.707,0L6,15.707C5.805,15.512,5.805,15.195,6,15
	s0.512-0.195,0.707,0L7,15.293L8.293,14C8.488,13.805,8.805,13.805,9,14S9.195,14.512,9,14.707z M9,11.293
	C9.195,11.488,9.195,11.805,9,12s-0.512,0.195-0.707,0L7.5,11.207L6.707,12C6.512,12.195,6.195,12.195,6,12s-0.195-0.512,0-0.707
	L6.793,10.5L6,9.707C5.805,9.512,5.805,9.195,6,9s0.512-0.195,0.707,0L7.5,9.793L8.293,9C8.488,8.805,8.805,8.805,9,9
	s0.195,0.512,0,0.707L8.207,10.5L9,11.293z M26,8H15c-1.657,0-3,1.343-3,3v16c0,1.657,1.343,3,3,3h11c1.657,0,3-1.343,3-3V11
	C29,9.343,27.657,8,26,8z M18,24.707l-1.646,1.646c-0.195,0.195-0.512,0.195-0.707,0L15,25.707c-0.195-0.195-0.195-0.512,0-0.707
	s0.512-0.195,0.707,0L16,25.293L17.293,24c0.195-0.195,0.512-0.195,0.707,0S18.195,24.512,18,24.707z M18,20.707l-1.646,1.646
	c-0.195,0.195-0.512,0.195-0.707,0L15,21.707c-0.195-0.195-0.195-0.512,0-0.707s0.512-0.195,0.707,0L16,21.293L17.293,20
	c0.195-0.195,0.512-0.195,0.707,0S18.195,20.512,18,20.707z M18,17.293c0.195,0.195,0.195,0.512,0,0.707s-0.512,0.195-0.707,0
	L16.5,17.207L15.707,18c-0.195,0.195-0.512,0.195-0.707,0s-0.195-0.512,0-0.707l0.793-0.793L15,15.707
	c-0.195-0.195-0.195-0.512,0-0.707s0.512-0.195,0.707,0l0.793,0.793L17.293,15c0.195-0.195,0.512-0.195,0.707,0s0.195,0.512,0,0.707
	L17.207,16.5L18,17.293z M18,11.707l-1.646,1.646c-0.195,0.195-0.512,0.195-0.707,0L15,12.707c-0.195-0.195-0.195-0.512,0-0.707
	s0.512-0.195,0.707,0L16,12.293L17.293,11c0.195-0.195,0.512-0.195,0.707,0S18.195,11.512,18,11.707z"/>
</svg>